<?xml version="1.0" standalone="no"?>
<!DOCTYPE svg PUBLIC "-//W3C//DTD SVG 1.1//EN" "http://www.w3.org/Graphics/SVG/1.1/DTD/svg11.dtd" >
<svg xmlns="http://www.w3.org/2000/svg" xmlns:xlink="http://www.w3.org/1999/xlink" version="1.1">
<metadata></metadata>
<defs>
<font id="ramsblack_italic" horiz-adv-x="1126" >
<font-face units-per-em="2048" ascent="1536" descent="-512" />
<missing-glyph horiz-adv-x="532" />
<glyph unicode="&#xfb01;" horiz-adv-x="1390" d="M94 684l31 295h135l12 121q7 72 37.5 137t84 119.5t139.5 86.5t194 32h92l-26 -263q-182 0 -197 -141l-10 -92h710l-102 -979h-328l72 684h-383l-72 -684h-325l71 684h-135zM979 1116l29 279h338l-29 -279h-338z" />
<glyph unicode="&#xfb02;" horiz-adv-x="1398" d="M94 684l31 295h137l12 121q7 72 37.5 137t84 119.5t139.5 86.5t194 32h621l-154 -1475h-326l127 1212h-202q-182 0 -197 -141l-10 -92h182l-31 -295h-182l-72 -684h-325l71 684h-137z" />
<glyph horiz-adv-x="0" />
<glyph horiz-adv-x="682" />
<glyph unicode=" "  horiz-adv-x="532" />
<glyph unicode="&#x09;" horiz-adv-x="532" />
<glyph unicode="&#xa0;" horiz-adv-x="532" />
<glyph unicode="!" horiz-adv-x="716" d="M145 0l35 346h348l-34 -346h-349zM225 774l74 701h348l-74 -701l-59 -278h-287z" />
<glyph unicode="&#x22;" horiz-adv-x="942" d="M154 903l61 572h303l-149 -572h-215zM588 903l61 572h303l-149 -572h-215z" />
<glyph unicode="#" d="M37 285l33 305h225l41 170h-193l31 305h238l82 332h200l-84 -332h158l84 332h199l-84 -332h188l-31 -305h-231l-43 -170h201l-33 -305h-246l-67 -285h-201l69 285h-159l-70 -285h-197l70 285h-180zM494 590h157l43 170h-159z" />
<glyph unicode="$" d="M68 76l34 336q8 -5 21.5 -12.5t58 -27t90.5 -34.5t113 -27t131 -12q43 0 85 10.5t76 39t34 69.5q0 31 -24.5 57t-65 45t-91.5 41t-105 43.5t-105 54.5t-91.5 71.5t-65 97.5t-24.5 130q0 177 109 290t278 151l19 186h282l-18 -176q26 -4 51.5 -8.5t47 -9.5t41 -10t35 -10 t28.5 -9.5t22.5 -8t16 -6.5t9.5 -5l3 -1l-33 -315q-19 8 -52.5 20.5t-135 33t-199.5 20.5q-59 0 -109.5 -26.5t-50.5 -74.5q0 -24 25.5 -45.5t66.5 -38.5t94 -39t108 -45t108 -58.5t94 -78t66.5 -105.5t25.5 -138q0 -169 -105 -289.5t-304 -163.5l-23 -215h-283l21 203 q-90 9 -167.5 31.5t-109.5 40.5z" />
<glyph unicode="%" horiz-adv-x="1812" d="M176 1049q0 153 106 260.5t265 107.5q136 0 231.5 -92t95.5 -229q0 -158 -105.5 -264.5t-266.5 -106.5q-138 0 -232 91.5t-94 232.5zM342 -20l942 1437h260l-940 -1437h-262zM401 1065q0 -51 33.5 -84t81.5 -33q57 0 93 37t36 92q0 52 -31.5 84.5t-81.5 32.5 q-58 0 -94.5 -38t-36.5 -91zM1012 303q0 153 105.5 261t264.5 108q136 0 232 -92.5t96 -229.5q0 -158 -105.5 -264t-267.5 -106q-138 0 -231.5 91t-93.5 232zM1237 319q0 -51 33.5 -83.5t81.5 -32.5q57 0 93 37t36 92q0 52 -31.5 84.5t-81.5 32.5q-58 0 -94.5 -38.5 t-36.5 -91.5z" />
<glyph unicode="&#x26;" horiz-adv-x="1392" d="M121 416q0 53 12 104t31.5 90.5t43.5 74.5t47.5 59.5t43 43t31.5 26.5l12 9q-3 3 -7.5 9t-16.5 26t-21.5 42.5t-17 58t-7.5 73.5q0 112 65 200.5t173.5 136.5t239.5 48q96 0 181 -15.5t122 -31.5l37 -16l-33 -301q-18 10 -49 24t-110.5 38t-141.5 24q-66 0 -111 -26.5 t-45 -76.5q0 -14 4 -29t13 -33t16 -31t22.5 -34.5t21.5 -29.5t23 -30t19 -24l270 -358q29 90 29 147h291q-25 -217 -129 -362l118 -143l-243 -193l-115 141q-5 -3 -14.5 -8.5t-41.5 -18.5t-67 -23t-90.5 -18.5t-112.5 -8.5q-116 0 -210.5 33.5t-155.5 93t-94 138.5t-33 171z M434 449q0 -74 55 -129.5t152 -55.5q28 0 56.5 5t43.5 11l15 5l-260 319q-62 -84 -62 -155z" />
<glyph unicode="'" horiz-adv-x="507" d="M154 903l61 572h303l-149 -572h-215z" />
<glyph unicode="(" horiz-adv-x="708" d="M141 367q0 282 103.5 558t357.5 574l221 -139q-115 -155 -192.5 -299t-114 -265.5t-50 -213.5t-13.5 -189q0 -332 194 -698l-250 -148q-256 402 -256 820z" />
<glyph unicode=")" horiz-adv-x="708" d="M-59 -313q113 155 190 298t113 264.5t49.5 213.5t13.5 190q0 330 -194 699l252 147q256 -402 256 -819q0 -136 -22 -264.5t-73 -270.5t-143 -293t-223 -305z" />
<glyph unicode="*" horiz-adv-x="1048" d="M141 1114q0 65 44 112.5t106 47.5q29 0 69 -19l115 -63l-4 121q-3 79 37.5 130.5t116.5 51.5q52 0 87.5 -33.5t35.5 -83.5q0 -21 -11 -65l-28 -121l129 63q44 19 71 19q54 0 86.5 -36t32.5 -87q0 -62 -34 -102.5t-89 -51.5l-147 -28l90 -101q26 -29 26 -77 q0 -63 -45.5 -107.5t-107.5 -44.5q-85 0 -113 66l-53 126l-82 -126q-44 -66 -125 -66q-55 0 -91 34t-36 87q0 65 51 110l111 99l-143 28q-99 20 -99 117z" />
<glyph unicode="+" d="M141 526l31 281h297l31 303h280l-30 -303h303l-31 -281h-303l-31 -303h-280l30 303h-297z" />
<glyph unicode="," horiz-adv-x="665" d="M115 -270l151 247l2 23h-94l35 346h348l-37 -360l-252 -348z" />
<glyph unicode="-" horiz-adv-x="829" d="M135 393l31 295h584l-31 -295h-584z" />
<glyph unicode="." horiz-adv-x="634" d="M133 0l37 346h348l-37 -346h-348z" />
<glyph unicode="/" horiz-adv-x="753" d="M-16 -20l577 1439h283l-580 -1439h-280z" />
<glyph unicode="0" d="M94 575q0 184 45 342t122 267t182.5 171t224.5 62q193 0 313.5 -164t120.5 -430q0 -186 -44.5 -344.5t-121.5 -267.5t-182 -170t-224 -61q-195 0 -315.5 163t-120.5 432zM428 582q0 -131 34.5 -205t94.5 -74q84 0 146.5 144t62.5 374q0 128 -33.5 200.5t-91.5 72.5 q-83 0 -148 -145t-65 -367z" />
<glyph unicode="1" d="M106 0l33 317h297l74 705l-277 -129l37 342l334 162h281l-113 -1080h283l-33 -317h-916z" />
<glyph unicode="2" d="M14 0q45 54 116.5 139t115 137t104 125.5t98 122t82.5 109t72 104t51.5 89t35.5 82t11 65.5q0 125 -139 125q-60 0 -153.5 -36t-157.5 -72l-64 -36l37 336q8 5 23.5 13.5t62.5 30.5t95 39t115.5 30.5t129.5 13.5q190 0 298 -103t108 -282q0 -34 -3 -65.5t-14 -66.5 t-18.5 -61t-29 -66t-33.5 -63t-44.5 -70t-48 -69.5t-59 -79.5t-63 -81.5t-72.5 -92.5h360l-35 -317h-981z" />
<glyph unicode="3" d="M111 80l34 338q6 -5 17.5 -13t47.5 -29t73.5 -37t93 -29t108.5 -13q95 0 150 49t55 111q0 129 -254 129l31 284q126 0 192 37.5t66 104.5q0 41 -36.5 68.5t-104.5 27.5q-71 0 -155.5 -25t-133.5 -50l-49 -25l35 317q22 11 60 26.5t143.5 41.5t197.5 26q181 0 285 -97 t104 -247q0 -61 -17.5 -118.5t-42.5 -95t-50 -66.5t-43 -43l-17 -13q6 -3 15 -10t33 -31.5t42.5 -53.5t33.5 -78.5t15 -104.5q0 -209 -152 -344t-388 -135q-67 0 -132 10t-109.5 24.5t-79 29t-51.5 24.5z" />
<glyph unicode="4" d="M0 303l602 1094h363l-443 -785h154l29 197h313l-21 -197h103l-33 -309h-102l-31 -303h-322l31 303h-643z" />
<glyph unicode="5" d="M104 80l37 323q6 -4 16.5 -11.5t46 -25.5t72.5 -32t92.5 -25.5t110.5 -11.5q104 0 163.5 53.5t59.5 128.5q0 69 -53.5 109.5t-148.5 40.5q-61 0 -136.5 -6.5t-121.5 -13.5l-45 -7l174 795h712l-34 -314h-416l-33 -157q108 -1 195 -34.5t143.5 -90.5t86.5 -132.5 t30 -162.5q0 -232 -153 -379t-406 -147q-63 0 -126.5 10.5t-109.5 25t-82.5 29t-55.5 25.5z" />
<glyph unicode="6" d="M129 432q0 278 195.5 549.5t525.5 458.5l147 -256q-140 -75 -249.5 -165t-169.5 -179q48 24 118 24q156 0 258.5 -110.5t102.5 -278.5q0 -208 -142 -351.5t-356 -143.5q-193 0 -311.5 122t-118.5 330zM449 440q0 -70 37 -111.5t98 -41.5q70 0 115.5 50.5t45.5 131.5 q0 58 -37.5 97.5t-103.5 39.5q-38 0 -71 -8t-47 -16l-13 -9q-24 -57 -24 -133z" />
<glyph unicode="7" d="M102 0l600 1085h-526l33 312h1010l-754 -1397h-363z" />
<glyph unicode="8" d="M74 369q0 67 19 128.5t46.5 100.5t55 69t46.5 43l19 13q-4 3 -10 9t-22.5 27.5t-29 47t-22.5 67t-10 87.5q0 199 143 327.5t357 128.5q188 0 308 -107t120 -278q0 -57 -15.5 -110t-37.5 -87.5t-44 -61t-37 -38.5l-16 -12q5 -3 13 -10t29 -32t37 -53.5t29 -77t13 -101.5 q0 -197 -149 -333t-377 -136q-209 0 -337 109t-128 280zM389 416q0 -57 48 -93t122 -36q77 0 135 41t58 116q0 58 -47 94.5t-117 36.5q-85 0 -142 -45t-57 -114zM485 975q0 -50 37.5 -83.5t95.5 -33.5q69 0 112.5 41.5t43.5 101.5q0 54 -35.5 87.5t-93.5 33.5 q-72 0 -116 -41t-44 -106z" />
<glyph unicode="9" d="M147 922q0 208 142 351.5t356 143.5q193 0 311.5 -122t118.5 -330q0 -278 -195.5 -549.5t-525.5 -458.5l-147 256q140 75 250 165t170 179q-49 -25 -119 -25q-156 0 -258.5 111t-102.5 279zM459 928q0 -58 37.5 -97.5t103.5 -39.5q38 0 71 8t47 16l13 8q25 57 25 133 q0 70 -37.5 112t-97.5 42q-70 0 -116 -50.5t-46 -131.5z" />
<glyph unicode=":" horiz-adv-x="634" d="M117 0l37 346h348l-37 -346h-348zM182 633l37 346h348l-37 -346h-348z" />
<glyph unicode=";" horiz-adv-x="634" d="M68 -270l149 247l4 23h-94l35 346h348l-37 -360l-252 -348zM193 633l36 346h349l-37 -346h-348z" />
<glyph unicode="&#x3c;" d="M145 561l23 213l924 410l-33 -310l-518 -208l475 -205l-33 -311z" />
<glyph unicode="=" d="M119 295l28 280h881l-29 -280h-880zM166 758l31 280h880l-30 -280h-881z" />
<glyph unicode="&#x3e;" d="M102 150l33 311l520 205l-477 208l33 310l838 -410l-23 -213z" />
<glyph unicode="?" horiz-adv-x="960" d="M170 1067l35 330q23 11 62 27t138 42.5t173 26.5q183 0 280.5 -91.5t97.5 -230.5q0 -87 -32 -163.5t-80 -130t-96.5 -97t-91 -82t-54.5 -65.5q-10 -22 -19 -56t-13 -57l-3 -24h-301q2 112 6 159q6 59 41.5 115t81 99t90 82.5t75 80t30.5 76.5q0 68 -107 68q-37 0 -83 -11 t-85 -27t-72.5 -32.5t-52.5 -27.5zM193 0l36 346h349l-37 -346h-348z" />
<glyph unicode="@" horiz-adv-x="2142" d="M154 440q0 153 40 294t110.5 256t170 210t216.5 159t250.5 99t272.5 35q180 0 336.5 -57t267.5 -155t174.5 -235t63.5 -292q0 -131 -42 -243t-114.5 -192t-170 -137t-209 -84.5t-230.5 -27.5h-143l-4 77q-13 -10 -35.5 -25t-83.5 -40t-113 -25q-129 0 -209.5 96.5 t-80.5 264.5q0 100 39.5 199.5t105.5 177t161 126t199 48.5q45 0 83.5 -10t61 -24.5t38.5 -29.5t22 -25l6 -10l29 84h252l-197 -628q41 0 85.5 11t94 39.5t88 71.5t64 115t25.5 162q0 223 -157.5 366.5t-416.5 143.5q-121 0 -236.5 -39t-211.5 -110.5t-169.5 -167 t-114 -215.5t-40.5 -248q0 -273 173.5 -447t445.5 -174q99 0 198.5 20.5t171 50t129 59.5t86.5 50l29 21l-31 -293q-9 -7 -26.5 -18t-77.5 -40t-127.5 -51.5t-175 -40.5t-221.5 -18q-241 0 -436 112.5t-305.5 310.5t-110.5 443zM893 446q0 -66 26.5 -101.5t73.5 -35.5 q103 0 173.5 91.5t70.5 195.5q0 61 -27 93t-77 32q-99 0 -169.5 -87.5t-70.5 -187.5z" />
<glyph unicode="A" horiz-adv-x="1411" d="M-18 0l833 1491l535 -1491h-389l-50 199h-454l-95 -199h-380zM573 449h267l-90 380z" />
<glyph unicode="B" horiz-adv-x="1349" d="M137 0l146 1397h522q228 0 348.5 -91.5t120.5 -263.5q0 -56 -15.5 -108t-37.5 -86t-46 -60t-39.5 -37.5t-19.5 -11.5q3 -2 8 -5t19.5 -15.5t27.5 -27t29 -39.5t27.5 -52t19.5 -65.5t8 -79.5q0 -207 -142.5 -331t-391.5 -124h-584zM508 315h225q86 0 133 38t47 100 q0 49 -41.5 78.5t-130.5 29.5h-209zM565 852h199q71 0 118.5 36t47.5 99q0 46 -33.5 70t-95.5 24h-213z" />
<glyph unicode="C" horiz-adv-x="1294" d="M115 635q0 163 62 308t168.5 249t256 164.5t318.5 60.5q68 0 131 -8.5t104.5 -20.5t73.5 -24t47 -20l14 -9l-35 -336q-6 4 -16.5 10.5t-46 22.5t-74.5 28.5t-98.5 23t-120.5 10.5q-189 0 -317.5 -129.5t-128.5 -309.5q0 -150 102 -251t268 -101q67 0 132.5 12.5t111 30 t81.5 34.5t54 30l17 12l-37 -348q-7 -4 -19 -10t-53 -22.5t-84.5 -29t-109.5 -22.5t-132 -10q-145 0 -270 50t-212.5 136.5t-137 208t-49.5 260.5z" />
<glyph unicode="D" horiz-adv-x="1431" d="M137 0l146 1397h442q317 0 490.5 -168t173.5 -453q0 -166 -50.5 -305.5t-148 -245.5t-254 -165.5t-356.5 -59.5h-443zM508 317h113q105 0 188 34t135 94t78.5 138.5t26.5 170.5q0 148 -89.5 236.5t-259.5 88.5h-112z" />
<glyph unicode="E" horiz-adv-x="1320" d="M137 0l146 1397h1011l-32 -318h-674l-23 -219h574l-33 -311h-574l-24 -232h686l-33 -317h-1024z" />
<glyph unicode="F" horiz-adv-x="1185" d="M137 0l146 1397h929l-32 -318h-590l-27 -243h535l-33 -312h-535l-53 -524h-340z" />
<glyph unicode="G" horiz-adv-x="1521" d="M115 635q0 222 107.5 401.5t291 279t404.5 99.5q87 0 169 -12t138 -28.5t99.5 -33.5t63.5 -29l21 -12l-37 -331q-8 5 -22 13.5t-60 30t-95 38t-122.5 30t-146.5 13.5q-210 0 -341.5 -126t-131.5 -313q0 -154 99 -254t271 -100q72 0 136.5 12.5t92.5 25.5l29 13l15 142 h-328l29 278h645l-62 -600q-10 -8 -28.5 -21t-79.5 -46t-127 -58t-167.5 -46t-203.5 -21q-192 0 -343 85t-233.5 234t-82.5 336z" />
<glyph unicode="H" horiz-adv-x="1527" d="M137 0l146 1397h338l-56 -535h502l55 535h340l-145 -1397h-340l57 545h-502l-57 -545h-338z" />
<glyph unicode="I" horiz-adv-x="712" d="M147 0l146 1397h344l-145 -1397h-345z" />
<glyph unicode="J" horiz-adv-x="765" d="M45 0l31 309h90q42 0 70 24.5t32 69.5l105 994h338l-105 -1004q-20 -189 -127 -291t-293 -102h-141z" />
<glyph unicode="K" horiz-adv-x="1359" d="M137 0l146 1397h338l-50 -475l424 475h416l-604 -631l506 -766h-436l-310 518l-43 -43l-49 -475h-338z" />
<glyph unicode="L" horiz-adv-x="1173" d="M137 0l146 1397h338l-113 -1080h620l-32 -317h-959z" />
<glyph unicode="M" horiz-adv-x="1767" d="M135 0l156 1473l635 -658l776 658l-154 -1473h-340l82 743l-407 -342l-330 353l-78 -754h-340z" />
<glyph unicode="N" horiz-adv-x="1529" d="M137 0l154 1475l762 -799l73 721h338l-153 -1477l-762 791l-74 -711h-338z" />
<glyph unicode="O" horiz-adv-x="1617" d="M115 623q0 162 63 309t170 253.5t254.5 169t310.5 62.5q187 0 339.5 -84t239.5 -231.5t87 -327.5q0 -162 -63 -308.5t-170 -253t-256 -169.5t-314 -63q-138 0 -261 50t-210.5 135.5t-138.5 204.5t-51 253zM457 655q0 -148 99 -250t247 -102q111 0 211 58.5t161.5 160 t61.5 219.5q0 148 -100.5 250.5t-249.5 102.5q-173 0 -301.5 -129.5t-128.5 -309.5z" />
<glyph unicode="P" horiz-adv-x="1265" d="M137 0l146 1397h548q206 0 320.5 -119.5t114.5 -304.5q0 -101 -36.5 -193t-102.5 -163.5t-168.5 -113.5t-225.5 -42h-211l-47 -461h-338zM553 762h192q84 0 133.5 49.5t49.5 126.5q0 58 -37 99.5t-105 41.5h-198z" />
<glyph unicode="Q" horiz-adv-x="1615" d="M113 623q0 162 63 309t170 253.5t254.5 169t310.5 62.5q187 0 339.5 -84t239.5 -231.5t87 -327.5q0 -214 -105 -395t-282 -287l278 -145l-38 -363l-670 396q-181 3 -329.5 88.5t-233 232t-84.5 322.5zM455 655q0 -148 99 -250t247 -102q111 0 211 58.5t161.5 160 t61.5 219.5q0 148 -100.5 250.5t-249.5 102.5q-173 0 -301.5 -129.5t-128.5 -309.5z" />
<glyph unicode="R" horiz-adv-x="1357" d="M137 0l146 1397h546q213 0 328 -111.5t115 -290.5q0 -148 -90.5 -269.5t-223.5 -176.5l342 -549h-415l-346 618l-64 -618h-338zM555 774h186q86 0 134.5 53t48.5 117q0 56 -38.5 96.5t-111.5 40.5h-186z" />
<glyph unicode="S" horiz-adv-x="1218" d="M94 88l37 342q9 -5 24.5 -14t63.5 -31.5t96.5 -40t117 -31.5t130.5 -14q95 0 158 29t63 90q0 35 -33 63t-85.5 49.5t-116 45t-127 57t-116 76.5t-85.5 112t-33 156q0 105 45.5 190t122.5 139t173 82.5t200 28.5q108 0 208 -21.5t145 -43.5l46 -21l-36 -332q-7 4 -20 11 t-55 24.5t-85.5 30.5t-107.5 24t-126 11q-67 0 -116.5 -26t-49.5 -75q0 -31 34 -56.5t88 -46.5t119 -44t130.5 -57t119.5 -78t88 -114.5t34 -158.5q0 -99 -37 -182.5t-108.5 -147t-185.5 -99t-259 -35.5q-75 0 -150 11t-128.5 27t-96.5 32t-64 27z" />
<glyph unicode="T" horiz-adv-x="1144" d="M117 1079l33 318h1062l-32 -318h-363l-112 -1079h-338l112 1079h-362z" />
<glyph unicode="U" horiz-adv-x="1497" d="M176 498q0 43 6 118l82 781h338l-82 -774q-6 -69 -6 -101q0 -102 64.5 -159.5t162.5 -57.5q128 0 200 76.5t85 202.5l86 813h342l-88 -832q-16 -148 -73 -262t-144.5 -183.5t-195 -104.5t-230.5 -35q-82 0 -160 19t-148.5 60t-123.5 100.5t-84 146.5t-31 192z" />
<glyph unicode="V" horiz-adv-x="1411" d="M131 1397h389l219 -774l379 774h383l-831 -1479z" />
<glyph unicode="W" horiz-adv-x="2138" d="M152 1397h385l168 -756l479 782l311 -780l326 754h387l-731 -1489l-365 868l-541 -870z" />
<glyph unicode="X" horiz-adv-x="1419" d="M4 0l547 723l-373 674h402l196 -410l279 410h403l-514 -680l397 -717h-401l-219 453l-318 -453h-399z" />
<glyph unicode="Y" horiz-adv-x="1349" d="M129 1397h379l217 -570l334 570h379l-576 -850l-55 -547h-338l57 555z" />
<glyph unicode="Z" horiz-adv-x="1296" d="M25 0l735 1079h-561l32 318h1123l-733 -1080h565l-33 -317h-1128z" />
<glyph unicode="[" horiz-adv-x="718" d="M115 -410l190 1807h494l-31 -281h-182l-131 -1245h182l-29 -281h-493z" />
<glyph unicode="\" horiz-adv-x="753" d="M131 1419h283l280 -1439h-282z" />
<glyph unicode="]" horiz-adv-x="718" d="M-27 -410l27 281h182l131 1245h-182l31 281h493l-190 -1807h-492z" />
<glyph unicode="^" horiz-adv-x="1069" d="M72 604l442 791h225l279 -791h-320l-110 406l-195 -406h-321z" />
<glyph unicode="_" horiz-adv-x="999" d="M-35 -387l25 233h1018l-25 -233h-1018z" />
<glyph unicode="`" horiz-adv-x="559" d="M63 1243l170 260l390 -250l-113 -198z" />
<glyph unicode="a" horiz-adv-x="1261" d="M102 436q0 121 43 227.5t114 179t162 114.5t187 42q53 0 98.5 -12.5t72.5 -30t46.5 -35t26.5 -29.5l8 -13l17 100h307l-103 -979h-297l-6 104q-3 -5 -9.5 -13.5t-31 -30t-53.5 -37.5t-78 -29.5t-104 -13.5q-169 0 -284.5 128.5t-115.5 327.5zM422 465q0 -81 50.5 -136 t135.5 -55q35 0 67 10t53 25t37 29.5t23 24.5l7 10l24 231q-2 4 -5.5 10.5t-17 23.5t-31 30t-47.5 23.5t-65 10.5q-98 0 -164.5 -70t-66.5 -167z" />
<glyph unicode="b" horiz-adv-x="1259" d="M123 0l156 1475h325l-61 -582q4 4 10.5 11.5t31 25.5t52.5 32t73.5 25.5t94.5 11.5q168 0 282.5 -128t114.5 -328q0 -153 -65.5 -282.5t-177.5 -205t-244 -75.5q-60 0 -109.5 13t-77.5 31t-48 36t-27 31l-7 13l-24 -104h-299zM487 373q2 -4 5.5 -10.5t17 -24t31 -30.5 t47.5 -23.5t65 -10.5q98 0 165 72t67 168q0 81 -51 134.5t-136 53.5q-35 0 -67 -10t-52.5 -24.5t-36.5 -29t-23 -24.5l-7 -10z" />
<glyph unicode="c" horiz-adv-x="997" d="M104 446q0 154 78 281.5t210 199.5t288 72q70 0 139 -16.5t103 -32.5l34 -16l-32 -307q-4 3 -12 8t-33.5 18t-52 23t-67 18t-79.5 8q-112 0 -184 -70.5t-72 -162.5q0 -82 57.5 -137.5t153.5 -55.5q76 0 143.5 19t97.5 38l29 19l-33 -307q-15 -7 -41 -18t-104.5 -29 t-153.5 -18q-204 0 -336.5 132.5t-132.5 333.5z" />
<glyph unicode="d" horiz-adv-x="1259" d="M102 442q0 116 43 220.5t113 177.5t161.5 116t186.5 43q49 0 92 -11t69.5 -26.5t45.5 -31t27 -26.5l8 -11l61 582h326l-156 -1475h-299l-4 104q-3 -5 -9.5 -13.5t-31 -30t-53.5 -37.5t-78 -29.5t-104 -13.5q-170 0 -284 129.5t-114 332.5zM420 465q0 -81 50.5 -136 t135.5 -55q35 0 67 10t53 25t37 29.5t23 24.5l7 10l24 231q-2 4 -5.5 10.5t-17 23.5t-31 30t-47.5 23.5t-65 10.5q-98 0 -164.5 -70t-66.5 -167z" />
<glyph unicode="e" horiz-adv-x="1187" d="M102 434q0 124 48 231t129.5 179.5t189.5 113.5t227 41q109 0 195.5 -37.5t137.5 -99.5t77.5 -135.5t26.5 -153.5q0 -44 -7.5 -89.5t-13.5 -67.5l-6 -23h-666q11 -62 68 -104.5t145 -42.5t179 17t138 33l48 17l-27 -258q-7 -3 -19 -8t-53 -18t-85 -23t-110.5 -18 t-133.5 -8q-218 0 -353 129.5t-135 324.5zM459 580h403q0 63 -50 114t-128 51q-74 0 -136.5 -48.5t-88.5 -116.5z" />
<glyph unicode="f" horiz-adv-x="765" d="M94 684l31 295h135l12 121q7 72 37.5 137t84 119.5t139.5 86.5t194 32h92l-26 -263q-182 0 -197 -141l-10 -92h182l-31 -295h-182l-72 -684h-325l71 684h-135z" />
<glyph unicode="g" horiz-adv-x="1251" d="M102 446q0 120 43.5 225t114.5 176t162.5 111.5t187.5 40.5q48 0 91 -12t69.5 -29t46.5 -34t29 -29l8 -12l18 96h304l-93 -875q-27 -256 -186 -395t-393 -139q-65 0 -127.5 9.5t-105 23.5t-76.5 28t-50 23l-16 10l121 260q4 -3 11.5 -8.5t33 -19t54 -23.5t73.5 -18.5 t92 -8.5q121 0 183 67t77 218q-103 -121 -266 -121q-172 0 -289 120.5t-117 315.5zM420 469q0 -78 52 -131t136 -53q33 0 64 10t51 24.5t35.5 29t22.5 24.5l7 10l23 225q-2 4 -5.5 10t-17 22t-30 28t-45.5 22t-62 10q-99 0 -165 -67t-66 -164z" />
<glyph unicode="h" horiz-adv-x="1267" d="M123 0l153 1475h326l-57 -560q4 3 12.5 8.5t35.5 20t55.5 25t71.5 19.5t85 9q151 0 251.5 -91.5t100.5 -262.5q0 -27 -4 -63l-59 -580h-326l57 545q2 23 2 41q0 54 -29 86.5t-89 32.5q-48 0 -97.5 -22.5t-74.5 -44.5l-25 -22l-63 -616h-326z" />
<glyph unicode="i" horiz-adv-x="641" d="M127 0l102 979h328l-102 -979h-328zM240 1116l28 279h338l-28 -279h-338z" />
<glyph unicode="j" horiz-adv-x="647" d="M-88 -410l27 263q181 0 196 141l103 985h325l-106 -1014q-7 -72 -37.5 -137t-84 -119.5t-139.5 -86.5t-194 -32h-90zM246 1116l28 279h338l-28 -279h-338z" />
<glyph unicode="k" horiz-adv-x="1150" d="M123 0l153 1475h322l-80 -775l273 279h413l-463 -434l379 -545h-399l-201 344l-45 -39l-31 -305h-321z" />
<glyph unicode="l" horiz-adv-x="653" d="M125 0l154 1475h325l-153 -1475h-326z" />
<glyph unicode="m" horiz-adv-x="1775" d="M123 0l102 979h307l5 -98q5 5 15 12.5t41.5 27t63 34.5t77 27.5t87.5 12.5q45 0 83 -12t60.5 -29.5t39 -35t22.5 -29.5l6 -12q6 5 17 13t45.5 28t69.5 35.5t85.5 28.5t96.5 13q160 0 239.5 -84t79.5 -237q0 -26 -4 -76l-62 -598h-325l59 559q2 20 2 41q0 98 -88 98 q-36 0 -75 -19t-60 -39l-22 -19l-66 -621h-326l62 578q0 2 1 12.5t1 17.5q0 90 -88 90q-34 0 -74 -19t-63 -37l-23 -19l-65 -623h-326z" />
<glyph unicode="n" horiz-adv-x="1267" d="M123 0l102 979h312v-105q5 5 15 13.5t41 29.5t63 37t79 29.5t92 13.5q142 0 236 -90.5t94 -259.5q0 -21 -4 -67l-59 -580h-326l57 543q2 18 2 43q0 54 -29 86.5t-89 32.5q-48 0 -97.5 -22.5t-74.5 -44.5l-25 -22l-63 -616h-326z" />
<glyph unicode="o" horiz-adv-x="1216" d="M102 449q0 154 79 281t211.5 198t287.5 71q134 0 244 -60.5t173.5 -168.5t63.5 -242q0 -154 -80.5 -281t-212.5 -197t-284 -70q-208 0 -345 133t-137 336zM428 469q0 -81 49.5 -138t130.5 -57q97 0 163.5 69t66.5 163q0 84 -51 141.5t-132 57.5q-96 0 -161.5 -70 t-65.5 -166z" />
<glyph unicode="p" horiz-adv-x="1251" d="M78 -410l145 1389h299l4 -105q3 5 10 13.5t32 30t54 38t78 30t103 13.5q169 0 283 -129.5t114 -332.5q0 -116 -42 -220.5t-111 -177.5t-159.5 -116t-185.5 -43q-49 0 -92.5 11t-70.5 26.5t-47 31t-28 26.5l-9 11l-52 -496h-325zM485 375q2 -4 5.5 -10.5t17 -24t31 -30.5 t47.5 -23.5t65 -10.5q98 0 165 70.5t67 167.5q0 81 -51 136t-136 55q-35 0 -67 -10t-52.5 -24.5t-36.5 -29.5t-23 -25l-7 -10z" />
<glyph unicode="q" horiz-adv-x="1251" d="M102 436q0 153 65.5 282.5t178 205t244.5 75.5q60 0 109.5 -13t77.5 -31.5t47.5 -36.5t26.5 -31l7 -13l25 105h299l-146 -1389h-325l51 496q-4 -4 -10.5 -11.5t-31 -25.5t-52.5 -32t-73.5 -25.5t-94.5 -11.5q-168 0 -283 128t-115 328zM420 465q0 -81 51 -135t135 -54 q35 0 67 10t53 25t37 29.5t23 24.5l7 10l24 231q-2 4 -5.5 10.5t-17 24t-31 30.5t-47.5 23.5t-65 10.5q-98 0 -164.5 -72t-66.5 -168z" />
<glyph unicode="r" horiz-adv-x="894" d="M123 0l102 979h301l2 -121q4 6 12 15t34.5 32.5t54.5 41.5t71 33t86 15q36 0 73.5 -5t56.5 -10l20 -5l-37 -322q-78 35 -178 35q-45 0 -80 -12t-67 -41t-53 -85.5t-29 -137.5l-43 -412h-326z" />
<glyph unicode="s" horiz-adv-x="1034" d="M88 68l31 278q7 -4 20.5 -11.5t55.5 -26t84 -33t101 -26t112 -11.5q131 0 131 61q0 20 -26.5 34t-68.5 24.5t-93 22.5t-102 32.5t-93 49t-68.5 77.5t-26.5 114q0 105 63.5 185t166 120.5t225.5 40.5q91 0 178.5 -16.5t129.5 -32.5l42 -16l-30 -275q-7 3 -18.5 8.5t-49 20 t-75.5 25t-93 19.5t-106 9q-44 0 -70.5 -17t-26.5 -44q0 -20 26.5 -34.5t69 -24.5l93.5 -22t102 -32t93.5 -47.5t69 -75.5t26.5 -110q0 -150 -132 -252t-364 -102q-96 0 -190.5 22t-140.5 44z" />
<glyph unicode="t" horiz-adv-x="792" d="M113 684l30 295h142l22 215h326l-23 -215h211l-30 -295h-211l-72 -684h-326l72 684h-141z" />
<glyph unicode="u" horiz-adv-x="1249" d="M145 332q0 9 5 67l59 580h326l-58 -543q-2 -18 -2 -43q0 -54 29.5 -86.5t89.5 -32.5q48 0 97.5 22t74.5 44l25 22l63 617h326l-103 -979h-311v104q-5 -5 -15 -13t-41 -29t-63.5 -37.5t-79.5 -29.5t-92 -13q-142 0 -236 90.5t-94 259.5z" />
<glyph unicode="v" horiz-adv-x="1150" d="M98 979h353l153 -508l250 508h354l-665 -1059z" />
<glyph unicode="w" horiz-adv-x="1662" d="M98 979h353l122 -508l338 551l228 -551l229 508h352l-596 -1085l-266 573l-393 -573z" />
<glyph unicode="x" horiz-adv-x="1146" d="M14 0l400 500l-283 479h369l125 -242l174 242h370l-387 -485l297 -494h-366l-140 258l-192 -258h-367z" />
<glyph unicode="y" horiz-adv-x="1179" d="M106 979h353l162 -561l290 561h334l-764 -1389h-329l272 488z" />
<glyph unicode="z" horiz-adv-x="1157" d="M35 0l540 684h-397l31 295h962l-536 -684h409l-30 -295h-979z" />
<glyph unicode="{" horiz-adv-x="727" d="M51 354l29 279q70 0 114.5 31t49.5 77l37 355q14 135 95.5 218t209.5 83h221l-31 -281h-133q-29 0 -42.5 -14t-16.5 -45l-33 -322q-4 -44 -19.5 -85t-34 -68t-36 -47t-29.5 -29l-12 -10q3 -3 8.5 -9t20 -26t25 -42t19.5 -56t9 -70q0 -19 -4 -55l-31 -283q-2 -16 -2 -39 q0 -45 53 -45h127l-29 -281h-221q-117 0 -180 72.5t-63 190.5q0 19 4 55l32 297q5 45 5 51q0 43 -37.5 70.5t-104.5 27.5z" />
<glyph unicode="|" horiz-adv-x="655" d="M111 -428l200 1921h287l-201 -1921h-286z" />
<glyph unicode="}" horiz-adv-x="727" d="M-29 -410l31 281h133q29 0 43 14t17 45l32 322q4 44 19.5 85t34 68t36 47.5t29.5 29.5l12 10q-3 3 -8.5 9t-20 25.5t-25 41.5t-19.5 56t-9 70q0 11 5 56l30 282q2 16 2 39q0 45 -53 45h-127l29 281h221q117 0 180.5 -72t63.5 -190q0 -20 -4 -56l-33 -297q-4 -36 -4 -51 q0 -43 37 -70.5t104 -27.5l-29 -279q-70 0 -114 -31t-49 -77l-37 -355q-14 -135 -95.5 -218t-209.5 -83h-222z" />
<glyph unicode="~" horiz-adv-x="1218" d="M131 360l29 273q5 5 14.5 13t40 28.5t61.5 36t76 28.5t88 13q63 0 144.5 -35t160 -70t134.5 -35q52 0 118 31t106 61l40 31l-29 -272q-5 -5 -15 -13t-41 -28t-62 -35.5t-74 -28t-82 -12.5q-48 0 -111 21.5t-113.5 48t-111 48t-105.5 21.5q-56 0 -123 -31.5t-106 -62.5z " />
<glyph unicode="&#xa1;" horiz-adv-x="716" d="M119 -496l74 701l59 278h287l2 -278l-74 -701h-348zM238 633l36 346h349l-37 -346h-348z" />
<glyph unicode="&#xa2;" horiz-adv-x="989" d="M82 453q0 187 122 331t306 195l20 195h283l-18 -189q44 -9 87.5 -21.5t65.5 -21.5l21 -8l-31 -299q-15 8 -42 19.5t-100.5 31t-136.5 19.5q-110 0 -183 -73t-73 -165q0 -82 58 -138.5t153 -56.5q76 0 152 17.5t114 34.5l38 18l-31 -293q-90 -37 -199 -55l-22 -211h-283 l23 217q-147 42 -235.5 164t-88.5 289z" />
<glyph unicode="&#xa3;" d="M43 0l35 317q154 0 164 119l10 113h-152l33 305h152l18 166q21 190 154 293.5t319 103.5q82 0 168 -16.5t131 -33.5l45 -17l-35 -316q-19 7 -50 18t-111 29.5t-140 18.5q-72 0 -110.5 -27.5t-44.5 -89.5l-15 -129h267l-33 -305h-266l-13 -129q-4 -34 -14 -59.5t-17 -34.5 l-6 -9h523l-35 -317h-977z" />
<glyph unicode="&#xa4;" d="M84 172l123 123q-51 94 -51 207q0 110 51 207l-119 118l174 174l121 -120q98 53 203 53q110 0 205 -53l122 120l177 -176l-121 -120q49 -94 49 -203q0 -94 -49 -205l125 -125l-176 -174l-125 125q-98 -53 -209 -53q-109 0 -203 49l-123 -121zM414 502q0 -70 49.5 -119 t122.5 -49q72 0 122 49.5t50 118.5t-50.5 117.5t-121.5 48.5q-72 0 -122 -48.5t-50 -117.5z" />
<glyph unicode="&#xa5;" d="M119 201l24 239h263l12 111h-262l24 240h178l-237 606h338l162 -502l253 502h338l-350 -606h174l-24 -240h-262l-13 -111h262l-24 -239h-262l-21 -201h-332l21 201h-262z" />
<glyph unicode="&#xa6;" horiz-adv-x="655" d="M115 -410l80 770h286l-80 -770h-286zM223 629l80 766h287l-80 -766h-287z" />
<glyph unicode="&#xa7;" horiz-adv-x="1214" d="M125 -285l33 320q23 -13 61.5 -32.5t137.5 -52t175 -32.5q78 0 132.5 25.5t54.5 66.5q0 26 -32 48t-82.5 40.5t-112 39t-123 50.5t-112 68t-82.5 98t-32 135q0 44 16 91t39 83.5t46 67t39 46.5l16 16q-3 3 -8 8.5t-18.5 24.5t-23.5 40.5t-18 56.5t-8 72q0 182 148 302 t391 120q94 0 189 -24t143 -48l49 -24l-35 -322q-8 5 -22.5 13t-58.5 28.5t-87 36t-100 28.5t-105 13q-79 0 -132.5 -25t-53.5 -65q0 -26 31.5 -48t82.5 -41.5t112 -41t122.5 -51.5t112.5 -68.5t82.5 -97.5t31.5 -131q0 -46 -16 -95t-39 -85t-45.5 -65t-38.5 -44l-16 -16 l8 -8t18 -24t23 -40.5t18 -57t8 -73.5q0 -181 -149 -301.5t-387 -120.5q-95 0 -190.5 24t-143.5 48zM469 553q0 -45 66.5 -83.5t216.5 -96.5q49 49 49 100q0 53 -70 94.5t-217 96.5q-45 -52 -45 -111z" />
<glyph unicode="&#xa8;" horiz-adv-x="743" d="M51 1128l29 269h268l-29 -269h-268zM526 1128l29 269h268l-28 -269h-269z" />
<glyph unicode="&#xa9;" horiz-adv-x="1689" d="M158 698q0 147 58 281t155 230.5t230 154t278 57.5q146 0 279.5 -57.5t230.5 -154t155 -230.5t58 -281q0 -145 -57.5 -279t-154.5 -231t-231 -155t-280 -58q-145 0 -278.5 58t-230.5 155t-154.5 231t-57.5 279zM375 698q0 -209 147.5 -356t356.5 -147t356 147t147 356 t-147 356.5t-356 147.5t-356.5 -147.5t-147.5 -356.5zM528 694q0 161 106.5 271t266.5 110q53 0 103.5 -12.5t75.5 -24.5l24 -12l-2 -219q-11 6 -30 15t-72 24.5t-99 15.5q-65 0 -107 -48.5t-42 -119.5q0 -73 40 -120.5t109 -47.5q51 0 104 15t80 30l27 15v-215 q-9 -7 -25.5 -17t-74 -26.5t-121.5 -16.5q-157 0 -260 111t-103 272z" />
<glyph unicode="&#xaa;" horiz-adv-x="780" d="M111 401l22 226h602l-22 -226h-602zM123 1042q0 153 94 259t219 106q41 0 75 -13.5t48 -26.5l14 -13l13 43h231l-67 -645h-232l-4 39q-7 -6 -20 -14t-52 -22t-77 -14q-106 0 -174 84t-68 217zM365 1059q0 -40 23.5 -69t60.5 -29q21 0 40 6.5t28 12.5l9 7l19 174 q-23 25 -72 25q-45 0 -76.5 -36t-31.5 -91z" />
<glyph unicode="&#xab;" horiz-adv-x="1316" d="M106 481l338 443h322l-332 -443l238 -442h-322zM647 481l338 443h322l-332 -443l237 -442h-321z" />
<glyph unicode="&#xac;" d="M156 627l28 278h881l-59 -561h-281l31 283h-600z" />
<glyph unicode="&#xad;" horiz-adv-x="829" d="M135 393l31 295h584l-31 -295h-584z" />
<glyph unicode="&#xae;" horiz-adv-x="1689" d="M158 698q0 147 58 281t155 230.5t230 154t278 57.5q146 0 279.5 -57.5t230.5 -154t155 -230.5t58 -281q0 -145 -57.5 -279t-154.5 -231t-231 -155t-280 -58q-145 0 -278.5 58t-230.5 155t-154.5 231t-57.5 279zM375 698q0 -209 147.5 -356t356.5 -147t356 147t147 356 t-147 356.5t-356 147.5t-356.5 -147.5t-147.5 -356.5zM612 336v727h258q151 0 231.5 -62.5t80.5 -185.5q0 -65 -32.5 -119t-90.5 -88l135 -272h-236l-86 233h-43v-233h-217zM829 741h68q26 0 51 20t25 56q0 74 -99 74h-45v-150z" />
<glyph unicode="&#xaf;" horiz-adv-x="520" d="M51 1128l29 269h520l-29 -269h-520z" />
<glyph unicode="&#xb0;" horiz-adv-x="755" d="M123 1171q0 131 92.5 223.5t222.5 92.5q132 0 225 -92.5t93 -223.5q0 -132 -93 -223.5t-225 -91.5t-223.5 91.5t-91.5 223.5zM322 1174q0 -47 34.5 -82t81.5 -35t82 35t35 82t-35 81.5t-82 34.5t-81.5 -34.5t-34.5 -81.5z" />
<glyph unicode="&#xb1;" d="M92 0l29 281h878l-28 -281h-879zM160 655l28 281h297l29 272h281l-29 -272h303l-29 -281h-303l-28 -272h-281l29 272h-297z" />
<glyph unicode="&#xb2;" horiz-adv-x="790" d="M104 911q260 321 332 419.5t72 146.5q0 57 -59 57q-37 0 -95 -24t-98 -48l-39 -24l29 258q16 9 44.5 22.5t102 36.5t131.5 23q115 0 182.5 -62t67.5 -170q0 -89 -42 -170t-148 -221h174l-27 -244h-627z" />
<glyph unicode="&#xb3;" horiz-adv-x="743" d="M111 967l24 227q12 -8 33 -20.5t82 -33t117 -20.5q49 0 70.5 20.5t21.5 45.5q0 35 -33.5 52t-114.5 17l19 166q145 0 145 80q0 51 -69 51q-44 0 -99 -16t-88 -32l-33 -15l23 219q14 7 39.5 18t98 29.5t136.5 18.5q113 0 180.5 -63.5t67.5 -160.5q0 -35 -9.5 -67 t-23.5 -52.5t-28 -36.5t-24 -23l-9 -7q3 -2 8.5 -6t19.5 -18.5t24.5 -31.5t19 -47t8.5 -63q0 -124 -93.5 -210.5t-234.5 -86.5q-80 0 -149.5 16.5t-99.5 32.5z" />
<glyph unicode="&#xb4;" horiz-adv-x="559" d="M63 1253l443 250l117 -260l-488 -188z" />
<glyph unicode="&#xb5;" horiz-adv-x="1277" d="M94 -410l146 1389h325l-53 -512q-4 -36 -4 -61q0 -63 37.5 -97.5t99.5 -34.5q51 0 95 25t62 49l19 25l64 606h325l-102 -979h-297l-2 102q-4 -5 -10.5 -13t-28.5 -28.5t-45 -36.5t-56 -29t-65 -13q-40 0 -74 14t-48 28l-15 13l-47 -447h-326z" />
<glyph unicode="&#xb6;" horiz-adv-x="1409" d="M137 983q0 87 32 161.5t92 131t154 89t212 32.5h776l-29 -283h-96l-154 -1462h-262l154 1462h-158l-153 -1462h-242l102 975h-84q-158 0 -251 99.5t-93 256.5z" />
<glyph unicode="&#xb7;" horiz-adv-x="634" d="M156 436l37 346h348l-37 -346h-348z" />
<glyph unicode="&#xb8;" horiz-adv-x="434" d="M-27 -379l13 131q47 -26 100 -26q40 0 61 16t21 43q0 32 -26 56.5t-52 32.5l-27 9l54 117h202l-32 -76q5 -1 14 -4.5t32 -15.5t40.5 -27.5t32 -42.5t14.5 -59q0 -54 -23 -95t-61.5 -64t-82.5 -34.5t-91 -11.5q-51 0 -98.5 13t-69.5 25z" />
<glyph unicode="&#xb9;" horiz-adv-x="559" d="M115 1386l26 259l217 114h191l-88 -848h-250l57 549z" />
<glyph unicode="&#xba;" horiz-adv-x="784" d="M92 401l23 226h587l-22 -226h-588zM125 1042q0 161 102.5 268t257.5 107q130 0 218 -86.5t88 -214.5q0 -160 -103.5 -266.5t-261.5 -106.5q-128 0 -214.5 86.5t-86.5 212.5zM358 1065q0 -41 23 -68.5t63 -27.5q48 0 79.5 37.5t31.5 89.5q0 44 -23.5 71t-64.5 27 q-45 0 -77 -37.5t-32 -91.5z" />
<glyph unicode="&#xbb;" horiz-adv-x="1316" d="M59 39l332 442l-237 443h321l244 -443l-338 -442h-322zM600 39l332 442l-238 443h322l244 -443l-338 -442h-322z" />
<glyph unicode="&#xbc;" horiz-adv-x="1841" d="M172 1024l27 258l217 115h190l-88 -848h-250l58 549zM289 -20l944 1439h268l-942 -1439h-270zM1012 164l301 684h264l-211 -477h84l37 94h203l-11 -94h72l-22 -207h-72l-17 -164h-237l16 164h-407z" />
<glyph unicode="&#xbd;" horiz-adv-x="1824" d="M172 1024l27 258l217 115h190l-88 -848h-250l58 549zM289 -20l944 1439h268l-942 -1439h-270zM1059 0q259 320 331 418.5t72 146.5q0 58 -59 58q-37 0 -95 -24.5t-98 -48.5l-39 -24l29 258q17 9 45 22.5t102 36.5t132 23q115 0 182.5 -61.5t67.5 -169.5q0 -89 -42 -169.5 t-149 -221.5h174l-26 -244h-627z" />
<glyph unicode="&#xbe;" horiz-adv-x="1968" d="M129 604l25 227q12 -8 32.5 -20t81.5 -32.5t117 -20.5q49 0 70.5 20t21.5 45q0 35 -33.5 52.5t-113.5 17.5l18 166q146 0 146 80q0 51 -70 51q-44 0 -98.5 -16t-87.5 -32l-33 -16l22 220q15 7 40.5 18t98 29t136.5 18q113 0 180.5 -63t67.5 -160q0 -56 -24 -102.5 t-48 -65.5l-23 -19q3 -2 8.5 -5.5t19.5 -18t24.5 -32t19 -47t8.5 -62.5q0 -125 -93 -211t-234 -86q-80 0 -150 16.5t-100 32.5zM416 -20l944 1439h268l-942 -1439h-270zM1139 164l301 684h264l-211 -477h84l37 94h203l-11 -94h72l-23 -207h-71l-17 -164h-237l16 164h-407z " />
<glyph unicode="&#xbf;" horiz-adv-x="960" d="M72 -193q0 86 31.5 162.5t79.5 130.5t96.5 97.5t90.5 82.5t54 66q10 22 19 56t13 58l3 23h301q-2 -112 -6 -159q-6 -57 -41.5 -112.5t-81 -97.5t-90 -81t-75 -78t-30.5 -74q0 -17 3 -28.5t13 -24t33 -19t58 -6.5q59 0 137.5 27.5t127.5 54.5l48 27l-35 -330 q-23 -11 -62 -27t-137.5 -42.5t-172.5 -26.5q-183 0 -280 91t-97 230zM453 633l36 346h349l-37 -346h-348z" />
<glyph unicode="&#xc0;" horiz-adv-x="1411" d="M-18 0l833 1491l535 -1491h-389l-50 199h-454l-95 -199h-380zM557 1661l170 260l389 -250l-112 -198zM573 449h267l-90 380z" />
<glyph unicode="&#xc1;" horiz-adv-x="1411" d="M-18 0l833 1491l535 -1491h-389l-50 199h-454l-95 -199h-380zM557 1671l442 250l117 -260l-487 -188zM573 449h267l-90 380z" />
<glyph unicode="&#xc2;" horiz-adv-x="1411" d="M-18 0l833 1491l535 -1491h-389l-50 199h-454l-95 -199h-380zM506 1690l356 241l303 -241l-116 -172l-218 120l-245 -120zM573 449h267l-90 380z" />
<glyph unicode="&#xc3;" horiz-adv-x="1411" d="M-18 0l833 1491l535 -1491h-389l-50 199h-454l-95 -199h-380zM508 1591q10 92 76 167t157 75q42 0 77 -13.5t59.5 -27.5t40.5 -14q22 0 44 17t33 33l11 17l157 -73q-10 -91 -76.5 -165.5t-156.5 -74.5q-42 0 -77 14t-59 27.5t-40 13.5q-22 0 -44.5 -16.5t-33.5 -33.5 l-12 -17zM573 449h267l-90 380z" />
<glyph unicode="&#xc4;" horiz-adv-x="1411" d="M-18 0l833 1491l535 -1491h-389l-50 199h-454l-95 -199h-380zM453 1546l28 269h269l-29 -269h-268zM573 449h267l-90 380zM928 1546l28 269h269l-29 -269h-268z" />
<glyph unicode="&#xc5;" horiz-adv-x="1411" d="M-18 0l815 1458q-112 3 -181 68t-69 160q0 121 90.5 203.5t226.5 82.5q118 0 191 -66t73 -167q0 -117 -86 -196.5t-217 -84.5l525 -1458h-389l-50 199h-454l-95 -199h-380zM573 449h267l-90 380zM741 1702q0 -35 24.5 -59.5t61.5 -24.5q47 0 77 30t30 74q0 37 -24.5 62.5 t-61.5 25.5q-44 0 -75.5 -32t-31.5 -76z" />
<glyph unicode="&#xc6;" horiz-adv-x="2088" d="M-14 0l1005 1397h1071l-32 -318h-646l-22 -219h549l-33 -313h-549l-24 -230h657l-33 -317h-995l27 258h-414l-176 -258h-385zM748 545h243l43 426z" />
<glyph unicode="&#xc7;" horiz-adv-x="1294" d="M115 635q0 163 62 308t168.5 249t256 164.5t318.5 60.5q68 0 131 -8.5t104.5 -20.5t73.5 -24t47 -20l14 -9l-35 -336q-6 4 -16.5 10.5t-46 22.5t-74.5 28.5t-98.5 23t-120.5 10.5q-189 0 -317.5 -129.5t-128.5 -309.5q0 -150 102 -251t268 -101q67 0 132.5 12.5t111 30 t81.5 34.5t54 30l17 12l-37 -348q-14 -8 -39 -19.5t-103.5 -35.5t-156.5 -33l-27 -62q5 -1 14 -4.5t32 -15.5t40.5 -27.5t32 -42.5t14.5 -59q0 -54 -23 -95t-61.5 -64t-82.5 -34.5t-91 -11.5q-51 0 -98 13t-69 25l-21 13l12 131q47 -26 100 -26q40 0 61 16t21 43 q0 32 -26 56.5t-52 32.5l-26 9l47 103q-252 32 -408.5 212t-156.5 437z" />
<glyph unicode="&#xc8;" horiz-adv-x="1320" d="M137 0l146 1397h1011l-32 -318h-674l-23 -219h574l-33 -311h-574l-24 -232h686l-33 -317h-1024zM557 1661l170 260l389 -250l-112 -198z" />
<glyph unicode="&#xc9;" horiz-adv-x="1320" d="M137 0l146 1397h1011l-32 -318h-674l-23 -219h574l-33 -311h-574l-24 -232h686l-33 -317h-1024zM555 1671l442 250l117 -260l-487 -188z" />
<glyph unicode="&#xca;" horiz-adv-x="1320" d="M137 0l146 1397h1011l-32 -318h-674l-23 -219h574l-33 -311h-574l-24 -232h686l-33 -317h-1024zM510 1690l356 241l303 -241l-116 -172l-217 120l-246 -120z" />
<glyph unicode="&#xcb;" horiz-adv-x="1320" d="M137 0l146 1397h1011l-32 -318h-674l-23 -219h574l-33 -311h-574l-24 -232h686l-33 -317h-1024zM453 1546l28 269h269l-29 -269h-268zM928 1546l28 269h269l-29 -269h-268z" />
<glyph unicode="&#xcc;" horiz-adv-x="712" d="M147 0l146 1397h344l-145 -1397h-345zM213 1661l170 260l389 -250l-113 -198z" />
<glyph unicode="&#xcd;" horiz-adv-x="712" d="M147 0l146 1397h344l-145 -1397h-345zM215 1671l442 250l117 -260l-487 -188z" />
<glyph unicode="&#xce;" horiz-adv-x="712" d="M147 0l146 1397h344l-145 -1397h-345zM156 1690l356 241l303 -241l-117 -172l-217 120l-245 -120z" />
<glyph unicode="&#xcf;" horiz-adv-x="712" d="M104 1546l29 269h268l-28 -269h-269zM147 0l146 1397h344l-145 -1397h-345zM580 1546l28 269h269l-29 -269h-268z" />
<glyph unicode="&#xd0;" horiz-adv-x="1460" d="M82 551l33 305h139l57 541h443q317 0 490 -168t173 -453q0 -166 -50.5 -305.5t-148 -245.5t-254 -165.5t-356.5 -59.5h-442l57 551h-141zM537 317h112q105 0 188 34t135 94t78.5 138.5t26.5 170.5q0 148 -89 236.5t-259 88.5h-113l-24 -223h219l-33 -305h-217z" />
<glyph unicode="&#xd1;" horiz-adv-x="1529" d="M137 0l154 1475l762 -799l73 721h338l-153 -1477l-762 791l-74 -711h-338zM545 1591q10 92 76 167t157 75q42 0 77 -13.5t59 -27.5t40 -14q22 0 44 17t33 33l11 17l158 -73q-10 -91 -76.5 -165.5t-156.5 -74.5q-42 0 -77 14t-59 27.5t-40 13.5q-22 0 -44.5 -16.5 t-34.5 -33.5l-12 -17z" />
<glyph unicode="&#xd2;" horiz-adv-x="1615" d="M113 623q0 162 63 309t170 253.5t254.5 169t310.5 62.5q187 0 339.5 -84t239.5 -231.5t87 -327.5q0 -162 -63 -308.5t-170 -253t-256 -169.5t-314 -63q-138 0 -261 50t-210.5 135.5t-138.5 204.5t-51 253zM455 655q0 -148 99 -250t247 -102q111 0 211 58.5t161.5 160 t61.5 219.5q0 148 -100.5 250.5t-249.5 102.5q-173 0 -301.5 -129.5t-128.5 -309.5zM662 1661l169 260l390 -250l-113 -198z" />
<glyph unicode="&#xd3;" horiz-adv-x="1615" d="M113 623q0 162 63 309t170 253.5t254.5 169t310.5 62.5q187 0 339.5 -84t239.5 -231.5t87 -327.5q0 -162 -63 -308.5t-170 -253t-256 -169.5t-314 -63q-138 0 -261 50t-210.5 135.5t-138.5 204.5t-51 253zM455 655q0 -148 99 -250t247 -102q111 0 211 58.5t161.5 160 t61.5 219.5q0 148 -100.5 250.5t-249.5 102.5q-173 0 -301.5 -129.5t-128.5 -309.5zM668 1671l442 250l117 -260l-488 -188z" />
<glyph unicode="&#xd4;" horiz-adv-x="1615" d="M113 623q0 162 63 309t170 253.5t254.5 169t310.5 62.5q187 0 339.5 -84t239.5 -231.5t87 -327.5q0 -162 -63 -308.5t-170 -253t-256 -169.5t-314 -63q-138 0 -261 50t-210.5 135.5t-138.5 204.5t-51 253zM455 655q0 -148 99 -250t247 -102q111 0 211 58.5t161.5 160 t61.5 219.5q0 148 -100.5 250.5t-249.5 102.5q-173 0 -301.5 -129.5t-128.5 -309.5zM612 1690l357 241l303 -241l-117 -172l-217 120l-246 -120z" />
<glyph unicode="&#xd5;" horiz-adv-x="1615" d="M113 623q0 162 63 309t170 253.5t254.5 169t310.5 62.5q187 0 339.5 -84t239.5 -231.5t87 -327.5q0 -162 -63 -308.5t-170 -253t-256 -169.5t-314 -63q-138 0 -261 50t-210.5 135.5t-138.5 204.5t-51 253zM455 655q0 -148 99 -250t247 -102q111 0 211 58.5t161.5 160 t61.5 219.5q0 148 -100.5 250.5t-249.5 102.5q-173 0 -301.5 -129.5t-128.5 -309.5zM616 1591q10 92 76.5 167t157.5 75q42 0 77 -13.5t59 -27.5t40 -14q22 0 44 17t33 33l11 17l158 -73q-10 -91 -77 -165.5t-157 -74.5q-42 0 -77 14t-59 27.5t-40 13.5q-22 0 -44.5 -16.5 t-33.5 -33.5l-12 -17z" />
<glyph unicode="&#xd6;" horiz-adv-x="1615" d="M113 623q0 162 63 309t170 253.5t254.5 169t310.5 62.5q187 0 339.5 -84t239.5 -231.5t87 -327.5q0 -162 -63 -308.5t-170 -253t-256 -169.5t-314 -63q-138 0 -261 50t-210.5 135.5t-138.5 204.5t-51 253zM455 655q0 -148 99 -250t247 -102q111 0 211 58.5t161.5 160 t61.5 219.5q0 148 -100.5 250.5t-249.5 102.5q-173 0 -301.5 -129.5t-128.5 -309.5zM563 1546l29 269h268l-29 -269h-268zM1038 1546l29 269h268l-28 -269h-269z" />
<glyph unicode="&#xd7;" d="M129 422l266 242l-215 245l217 197l219 -244l273 250l178 -201l-274 -247l219 -244l-217 -199l-222 244l-268 -242z" />
<glyph unicode="&#xd8;" horiz-adv-x="1615" d="M115 623q0 162 62.5 309t169 253.5t254 169t310.5 62.5q187 0 340 -86l133 148l179 -160l-127 -141q139 -175 139 -404q0 -162 -62.5 -308.5t-169 -253t-255.5 -169.5t-314 -63q-183 0 -336 83l-131 -147l-178 160l127 141q-141 174 -141 406zM446 655q0 -95 43 -176 l535 596q-73 27 -139 27q-115 0 -216 -60t-162 -163.5t-61 -223.5zM668 319q62 -24 133 -24q113 0 215 59.5t164.5 163t62.5 223.5q0 91 -43 172z" />
<glyph unicode="&#xd9;" horiz-adv-x="1497" d="M176 498q0 43 6 118l82 781h338l-82 -774q-6 -69 -6 -101q0 -102 64.5 -159.5t162.5 -57.5q128 0 200 76.5t85 202.5l86 813h342l-88 -832q-16 -148 -73 -262t-144.5 -183.5t-195 -104.5t-230.5 -35q-82 0 -160 19t-148.5 60t-123.5 100.5t-84 146.5t-31 192zM612 1661 l170 260l389 -250l-112 -198z" />
<glyph unicode="&#xda;" horiz-adv-x="1497" d="M176 498q0 43 6 118l82 781h338l-82 -774q-6 -69 -6 -101q0 -102 64.5 -159.5t162.5 -57.5q128 0 200 76.5t85 202.5l86 813h342l-88 -832q-16 -148 -73 -262t-144.5 -183.5t-195 -104.5t-230.5 -35q-82 0 -160 19t-148.5 60t-123.5 100.5t-84 146.5t-31 192zM612 1671 l443 250l116 -260l-487 -188z" />
<glyph unicode="&#xdb;" horiz-adv-x="1497" d="M176 498q0 43 6 118l82 781h338l-82 -774q-6 -69 -6 -101q0 -102 64.5 -159.5t162.5 -57.5q128 0 200 76.5t85 202.5l86 813h342l-88 -832q-16 -148 -73 -262t-144.5 -183.5t-195 -104.5t-230.5 -35q-82 0 -160 19t-148.5 60t-123.5 100.5t-84 146.5t-31 192zM557 1690 l356 241l304 -241l-117 -172l-217 120l-246 -120z" />
<glyph unicode="&#xdc;" horiz-adv-x="1497" d="M176 498q0 43 6 118l82 781h338l-82 -774q-6 -69 -6 -101q0 -102 64.5 -159.5t162.5 -57.5q128 0 200 76.5t85 202.5l86 813h342l-88 -832q-16 -148 -73 -262t-144.5 -183.5t-195 -104.5t-230.5 -35q-82 0 -160 19t-148.5 60t-123.5 100.5t-84 146.5t-31 192zM504 1546 l28 269h269l-29 -269h-268zM979 1546l29 269h268l-29 -269h-268z" />
<glyph unicode="&#xdd;" horiz-adv-x="1349" d="M129 1397h379l217 -570l334 570h379l-576 -850l-55 -547h-338l57 555zM535 1671l442 250l117 -260l-488 -188z" />
<glyph unicode="&#xde;" horiz-adv-x="1265" d="M137 0l146 1397h338l-17 -158h211q206 0 320 -119.5t114 -304.5q0 -101 -36 -193t-102.5 -163.5t-168.5 -113.5t-225 -42h-211l-31 -303h-338zM537 612h192q84 0 133 49.5t49 126.5q0 58 -36 96t-105 38h-199z" />
<glyph unicode="&#xdf;" horiz-adv-x="1288" d="M92 674l33 305h117l12 115q6 56 27.5 111.5t63 108t97.5 92.5t136 64.5t172 24.5q169 0 284 -90t115 -236q0 -70 -18.5 -125t-45.5 -88.5t-54 -60.5t-45.5 -55.5t-18.5 -59.5q0 -23 25.5 -50.5t61.5 -59t72.5 -70.5t62 -100t25.5 -133q0 -56 -16.5 -110t-53.5 -104 t-90 -88t-131 -60.5t-171 -22.5q-57 0 -103 9t-63 18l-17 9l29 277q82 -41 182 -41q43 0 70 22t27 58q0 32 -22 64t-53.5 62t-63.5 65t-54 88t-22 116q0 67 17 120t41.5 86.5t49.5 61.5t42 61t17 70q0 43 -29.5 69t-74.5 26q-59 0 -100 -39.5t-47 -100.5l-113 -1083h-326 l70 674h-117z" />
<glyph unicode="&#xe0;" horiz-adv-x="1261" d="M102 436q0 121 43 227.5t114 179t162 114.5t187 42q53 0 98.5 -12.5t72.5 -30t46.5 -35t26.5 -29.5l8 -13l17 100h307l-103 -979h-297l-6 104q-3 -5 -9.5 -13.5t-31 -30t-53.5 -37.5t-78 -29.5t-104 -13.5q-169 0 -284.5 128.5t-115.5 327.5zM422 465q0 -81 50.5 -136 t135.5 -55q35 0 67 10t53 25t37 29.5t23 24.5l7 10l24 231q-2 4 -5.5 10.5t-17 23.5t-31 30t-47.5 23.5t-65 10.5q-98 0 -164.5 -70t-66.5 -167zM430 1243l170 260l389 -250l-112 -198z" />
<glyph unicode="&#xe1;" horiz-adv-x="1261" d="M102 436q0 121 43 227.5t114 179t162 114.5t187 42q53 0 98.5 -12.5t72.5 -30t46.5 -35t26.5 -29.5l8 -13l17 100h307l-103 -979h-297l-6 104q-3 -5 -9.5 -13.5t-31 -30t-53.5 -37.5t-78 -29.5t-104 -13.5q-169 0 -284.5 128.5t-115.5 327.5zM422 465q0 -81 50.5 -136 t135.5 -55q35 0 67 10t53 25t37 29.5t23 24.5l7 10l24 231q-2 4 -5.5 10.5t-17 23.5t-31 30t-47.5 23.5t-65 10.5q-98 0 -164.5 -70t-66.5 -167zM432 1253l442 250l117 -260l-487 -188z" />
<glyph unicode="&#xe2;" horiz-adv-x="1261" d="M102 436q0 121 43 227.5t114 179t162 114.5t187 42q53 0 98.5 -12.5t72.5 -30t46.5 -35t26.5 -29.5l8 -13l17 100h307l-103 -979h-297l-6 104q-3 -5 -9.5 -13.5t-31 -30t-53.5 -37.5t-78 -29.5t-104 -13.5q-169 0 -284.5 128.5t-115.5 327.5zM379 1272l356 241l303 -241 l-116 -172l-217 121l-246 -121zM422 465q0 -81 50.5 -136t135.5 -55q35 0 67 10t53 25t37 29.5t23 24.5l7 10l24 231q-2 4 -5.5 10.5t-17 23.5t-31 30t-47.5 23.5t-65 10.5q-98 0 -164.5 -70t-66.5 -167z" />
<glyph unicode="&#xe3;" horiz-adv-x="1261" d="M102 436q0 121 43 227.5t114 179t162 114.5t187 42q53 0 98.5 -12.5t72.5 -30t46.5 -35t26.5 -29.5l8 -13l17 100h307l-103 -979h-297l-6 104q-3 -5 -9.5 -13.5t-31 -30t-53.5 -37.5t-78 -29.5t-104 -13.5q-169 0 -284.5 128.5t-115.5 327.5zM383 1174q10 92 76 166.5 t157 74.5q42 0 77 -13.5t59.5 -27.5t40.5 -14q22 0 44 17t33 33l11 17l157 -73q-10 -91 -76.5 -165.5t-156.5 -74.5q-42 0 -77 14t-59 27.5t-40 13.5q-22 0 -44.5 -16.5t-34.5 -33.5l-11 -17zM422 465q0 -81 50.5 -136t135.5 -55q35 0 67 10t53 25t37 29.5t23 24.5l7 10 l24 231q-2 4 -5.5 10.5t-17 23.5t-31 30t-47.5 23.5t-65 10.5q-98 0 -164.5 -70t-66.5 -167z" />
<glyph unicode="&#xe4;" horiz-adv-x="1261" d="M102 436q0 121 43 227.5t114 179t162 114.5t187 42q53 0 98.5 -12.5t72.5 -30t46.5 -35t26.5 -29.5l8 -13l17 100h307l-103 -979h-297l-6 104q-3 -5 -9.5 -13.5t-31 -30t-53.5 -37.5t-78 -29.5t-104 -13.5q-169 0 -284.5 128.5t-115.5 327.5zM326 1128l28 269h269 l-29 -269h-268zM422 465q0 -81 50.5 -136t135.5 -55q35 0 67 10t53 25t37 29.5t23 24.5l7 10l24 231q-2 4 -5.5 10.5t-17 23.5t-31 30t-47.5 23.5t-65 10.5q-98 0 -164.5 -70t-66.5 -167zM801 1128l28 269h269l-29 -269h-268z" />
<glyph unicode="&#xe5;" horiz-adv-x="1261" d="M102 436q0 121 43 227.5t114 179t162 114.5t187 42q53 0 98.5 -12.5t72.5 -30t46.5 -35t26.5 -29.5l8 -13l17 100h307l-103 -979h-297l-6 104q-3 -5 -9.5 -13.5t-31 -30t-53.5 -37.5t-78 -29.5t-104 -13.5q-169 0 -284.5 128.5t-115.5 327.5zM422 465q0 -81 50.5 -136 t135.5 -55q35 0 67 10t53 25t37 29.5t23 24.5l7 10l24 231q-2 4 -5.5 10.5t-17 23.5t-31 30t-47.5 23.5t-65 10.5q-98 0 -164.5 -70t-66.5 -167zM424 1268q0 121 90.5 203.5t226.5 82.5q118 0 191.5 -66t73.5 -167q0 -120 -91.5 -200.5t-226.5 -80.5q-118 0 -191 65t-73 163 zM618 1284q0 -35 25 -59.5t62 -24.5q46 0 76 30.5t30 74.5q0 37 -24.5 62.5t-61.5 25.5q-44 0 -75.5 -32.5t-31.5 -76.5z" />
<glyph unicode="&#xe6;" horiz-adv-x="1929" d="M102 442q0 121 43.5 226.5t114.5 176.5t162.5 111.5t187.5 40.5q53 0 98.5 -12t72.5 -29t46.5 -34t26.5 -29l8 -12l17 98h284l-6 -94q5 5 14.5 12.5t41.5 27t65.5 34.5t84.5 27.5t101 12.5q99 0 179 -37.5t129.5 -99.5t75.5 -136.5t26 -152.5q0 -44 -8 -89.5t-14 -67.5 l-7 -23h-659q10 -63 69.5 -107t159.5 -44q79 0 166 16t135 32l47 17l-26 -252q-18 -8 -50.5 -20.5t-129 -33.5t-187.5 -21q-59 0 -110.5 11t-83.5 26.5t-55.5 31t-33.5 26.5l-10 11l-16 -86h-281l-2 98q-3 -5 -10 -13t-31.5 -28t-53.5 -35.5t-76.5 -28.5t-100.5 -13 q-171 0 -287.5 129.5t-116.5 332.5zM424 465q0 -80 51.5 -136.5t132.5 -56.5q34 0 66.5 10.5t53.5 25t37.5 29.5t24.5 25l7 11l22 229l-5.5 11t-17.5 24t-31.5 30t-47.5 24t-64 11q-96 0 -162.5 -70.5t-66.5 -166.5zM1206 580h404q0 62 -49 115t-129 53q-81 0 -145.5 -51.5 t-80.5 -116.5z" />
<glyph unicode="&#xe7;" horiz-adv-x="997" d="M104 446q0 154 78 281.5t210 199.5t288 72q70 0 139 -16.5t103 -32.5l34 -16l-32 -307q-4 3 -12 8t-33.5 18t-52 23t-67 18t-79.5 8q-112 0 -184 -70.5t-72 -162.5q0 -82 57.5 -137.5t153.5 -55.5q76 0 143.5 19t97.5 38l29 19l-33 -307q-87 -43 -206 -59l-27 -62 q5 -1 14 -4.5t32 -15.5t40.5 -27.5t32 -42.5t14.5 -59q0 -54 -23 -95t-61.5 -64t-82.5 -34.5t-91 -11.5q-51 0 -98 13t-68 25l-22 13l12 131q47 -26 100 -26q40 0 61 16t21 43q0 32 -26 56.5t-52 32.5l-26 9l49 109q-162 32 -261.5 156.5t-99.5 297.5z" />
<glyph unicode="&#xe8;" horiz-adv-x="1187" d="M102 434q0 124 48 231t129.5 179.5t189.5 113.5t227 41q109 0 195.5 -37.5t137.5 -99.5t77.5 -135.5t26.5 -153.5q0 -44 -7.5 -89.5t-13.5 -67.5l-6 -23h-666q11 -62 68 -104.5t145 -42.5t179 17t138 33l48 17l-27 -258q-7 -3 -19 -8t-53 -18t-85 -23t-110.5 -18 t-133.5 -8q-218 0 -353 129.5t-135 324.5zM432 1243l170 260l389 -250l-112 -198zM459 580h403q0 63 -50 114t-128 51q-74 0 -136.5 -48.5t-88.5 -116.5z" />
<glyph unicode="&#xe9;" horiz-adv-x="1187" d="M102 434q0 124 48 231t129.5 179.5t189.5 113.5t227 41q109 0 195.5 -37.5t137.5 -99.5t77.5 -135.5t26.5 -153.5q0 -44 -7.5 -89.5t-13.5 -67.5l-6 -23h-666q11 -62 68 -104.5t145 -42.5t179 17t138 33l48 17l-27 -258q-7 -3 -19 -8t-53 -18t-85 -23t-110.5 -18 t-133.5 -8q-218 0 -353 129.5t-135 324.5zM432 1253l442 250l117 -260l-487 -188zM459 580h403q0 63 -50 114t-128 51q-74 0 -136.5 -48.5t-88.5 -116.5z" />
<glyph unicode="&#xea;" horiz-adv-x="1187" d="M102 434q0 124 48 231t129.5 179.5t189.5 113.5t227 41q109 0 195.5 -37.5t137.5 -99.5t77.5 -135.5t26.5 -153.5q0 -44 -7.5 -89.5t-13.5 -67.5l-6 -23h-666q11 -62 68 -104.5t145 -42.5t179 17t138 33l48 17l-27 -258q-7 -3 -19 -8t-53 -18t-85 -23t-110.5 -18 t-133.5 -8q-218 0 -353 129.5t-135 324.5zM377 1272l356 241l303 -241l-116 -172l-218 121l-245 -121zM459 580h403q0 63 -50 114t-128 51q-74 0 -136.5 -48.5t-88.5 -116.5z" />
<glyph unicode="&#xeb;" horiz-adv-x="1187" d="M102 434q0 124 48 231t129.5 179.5t189.5 113.5t227 41q109 0 195.5 -37.5t137.5 -99.5t77.5 -135.5t26.5 -153.5q0 -44 -7.5 -89.5t-13.5 -67.5l-6 -23h-666q11 -62 68 -104.5t145 -42.5t179 17t138 33l48 17l-27 -258q-7 -3 -19 -8t-53 -18t-85 -23t-110.5 -18 t-133.5 -8q-218 0 -353 129.5t-135 324.5zM326 1128l28 269h269l-29 -269h-268zM459 580h403q0 63 -50 114t-128 51q-74 0 -136.5 -48.5t-88.5 -116.5zM801 1128l28 269h269l-29 -269h-268z" />
<glyph unicode="&#xec;" horiz-adv-x="645" d="M121 0l102 979h328l-102 -979h-328zM135 1243l170 260l389 -250l-112 -198z" />
<glyph unicode="&#xed;" horiz-adv-x="645" d="M121 0l102 979h328l-102 -979h-328zM135 1253l443 250l116 -260l-487 -188z" />
<glyph unicode="&#xee;" horiz-adv-x="645" d="M90 1272l356 241l304 -241l-117 -172l-217 121l-246 -121zM121 0l102 979h328l-102 -979h-328z" />
<glyph unicode="&#xef;" horiz-adv-x="645" d="M29 1128l28 269h269l-29 -269h-268zM121 0l102 979h328l-102 -979h-328zM504 1128l28 269h269l-29 -269h-268z" />
<glyph unicode="&#xf0;" horiz-adv-x="1171" d="M88 403q0 113 43 211.5t113 164t158 102.5t178 37q58 0 104.5 -12t63.5 -24l18 -12q-3 52 -21.5 103.5t-44.5 83.5l-98 -94l-158 167l60 58q-49 12 -162 12l16 281q20 2 60 2q184 0 321 -64l105 101l155 -172l-71 -70q85 -100 127.5 -241.5t42.5 -303.5 q0 -160 -30 -288.5t-82 -214t-124 -143t-152 -82.5t-171 -25q-196 0 -323.5 121.5t-127.5 301.5zM399 446q0 -68 45.5 -115.5t116.5 -47.5q37 0 71 12.5t67.5 41.5t54 85.5t20.5 134.5v37q-2 3 -6.5 7.5t-20 16.5t-33 21.5t-46.5 17t-60 7.5q-88 0 -148.5 -66.5 t-60.5 -151.5z" />
<glyph unicode="&#xf1;" horiz-adv-x="1267" d="M123 0l102 979h312v-105q5 5 15 13.5t41 29.5t63 37t79 29.5t92 13.5q142 0 236 -90.5t94 -259.5q0 -21 -4 -67l-59 -580h-326l57 543q2 18 2 43q0 54 -29 86.5t-89 32.5q-48 0 -97.5 -22.5t-74.5 -44.5l-25 -22l-63 -616h-326zM416 1174q10 92 76 166.5t157 74.5 q42 0 77 -13.5t59 -27.5t40 -14q22 0 44 17t33 33l11 17l158 -73q-10 -91 -76.5 -165.5t-156.5 -74.5q-42 0 -77 14t-59 27.5t-40 13.5q-22 0 -44.5 -16.5t-34.5 -33.5l-12 -17z" />
<glyph unicode="&#xf2;" horiz-adv-x="1216" d="M102 449q0 154 79 281t211.5 198t287.5 71q134 0 244 -60.5t173.5 -168.5t63.5 -242q0 -154 -80.5 -281t-212.5 -197t-284 -70q-208 0 -345 133t-137 336zM428 469q0 -81 49.5 -138t130.5 -57q97 0 163.5 69t66.5 163q0 84 -51 141.5t-132 57.5q-96 0 -161.5 -70 t-65.5 -166zM432 1243l170 260l389 -250l-112 -198z" />
<glyph unicode="&#xf3;" horiz-adv-x="1216" d="M102 449q0 154 79 281t211.5 198t287.5 71q134 0 244 -60.5t173.5 -168.5t63.5 -242q0 -154 -80.5 -281t-212.5 -197t-284 -70q-208 0 -345 133t-137 336zM428 469q0 -81 49.5 -138t130.5 -57q97 0 163.5 69t66.5 163q0 84 -51 141.5t-132 57.5q-96 0 -161.5 -70 t-65.5 -166zM436 1253l443 250l116 -260l-487 -188z" />
<glyph unicode="&#xf4;" horiz-adv-x="1216" d="M102 449q0 154 79 281t211.5 198t287.5 71q134 0 244 -60.5t173.5 -168.5t63.5 -242q0 -154 -80.5 -281t-212.5 -197t-284 -70q-208 0 -345 133t-137 336zM379 1272l356 241l303 -241l-116 -172l-217 121l-246 -121zM428 469q0 -81 49.5 -138t130.5 -57q97 0 163.5 69 t66.5 163q0 84 -51 141.5t-132 57.5q-96 0 -161.5 -70t-65.5 -166z" />
<glyph unicode="&#xf5;" horiz-adv-x="1216" d="M102 449q0 154 79 281t211.5 198t287.5 71q134 0 244 -60.5t173.5 -168.5t63.5 -242q0 -154 -80.5 -281t-212.5 -197t-284 -70q-208 0 -345 133t-137 336zM385 1174q10 92 76 166.5t157 74.5q42 0 77 -13.5t59.5 -27.5t40.5 -14q22 0 44 17t33 33l11 17l157 -73 q-10 -91 -76.5 -165.5t-156.5 -74.5q-42 0 -77 14t-59 27.5t-40 13.5q-22 0 -44.5 -16.5t-34.5 -33.5l-11 -17zM428 469q0 -81 49.5 -138t130.5 -57q97 0 163.5 69t66.5 163q0 84 -51 141.5t-132 57.5q-96 0 -161.5 -70t-65.5 -166z" />
<glyph unicode="&#xf6;" horiz-adv-x="1216" d="M102 449q0 154 79 281t211.5 198t287.5 71q134 0 244 -60.5t173.5 -168.5t63.5 -242q0 -154 -80.5 -281t-212.5 -197t-284 -70q-208 0 -345 133t-137 336zM326 1128l28 269h269l-29 -269h-268zM428 469q0 -81 49.5 -138t130.5 -57q97 0 163.5 69t66.5 163q0 84 -51 141.5 t-132 57.5q-96 0 -161.5 -70t-65.5 -166zM801 1128l28 269h269l-29 -269h-268z" />
<glyph unicode="&#xf7;" d="M141 526l31 281h881l-31 -281h-881zM381 145l29 281h315l-29 -281h-315zM461 909l28 281h316l-29 -281h-315z" />
<glyph unicode="&#xf8;" horiz-adv-x="1220" d="M102 27l111 118q-107 126 -107 293q0 122 45.5 227.5t123 178t182.5 114t221 41.5q153 0 262 -65l109 119l112 -103l-106 -114q110 -133 110 -306q0 -159 -79.5 -286.5t-209 -195.5t-282.5 -68q-157 0 -266 65l-111 -121zM406 465q0 -40 18 -92l315 340q-35 14 -80 14 q-106 0 -179.5 -70.5t-73.5 -191.5zM530 266q35 -14 80 -14q106 0 180 70.5t74 191.5q0 40 -18 92z" />
<glyph unicode="&#xf9;" horiz-adv-x="1257" d="M145 332q0 9 5 67l59 580h326l-58 -543q-2 -18 -2 -43q0 -54 29.5 -86.5t89.5 -32.5q48 0 97.5 22t74.5 44l25 22l63 617h326l-103 -979h-311v104q-5 -5 -15 -13t-41 -29t-63.5 -37.5t-79.5 -29.5t-92 -13q-142 0 -236 90.5t-94 259.5zM434 1243l170 260l389 -250 l-112 -198z" />
<glyph unicode="&#xfa;" horiz-adv-x="1257" d="M145 332q0 9 5 67l59 580h326l-58 -543q-2 -18 -2 -43q0 -54 29.5 -86.5t89.5 -32.5q48 0 97.5 22t74.5 44l25 22l63 617h326l-103 -979h-311v104q-5 -5 -15 -13t-41 -29t-63.5 -37.5t-79.5 -29.5t-92 -13q-142 0 -236 90.5t-94 259.5zM442 1253l443 250l116 -260 l-487 -188z" />
<glyph unicode="&#xfb;" horiz-adv-x="1257" d="M145 332q0 9 5 67l59 580h326l-58 -543q-2 -18 -2 -43q0 -54 29.5 -86.5t89.5 -32.5q48 0 97.5 22t74.5 44l25 22l63 617h326l-103 -979h-311v104q-5 -5 -15 -13t-41 -29t-63.5 -37.5t-79.5 -29.5t-92 -13q-142 0 -236 90.5t-94 259.5zM387 1272l356 241l304 -241 l-117 -172l-217 121l-246 -121z" />
<glyph unicode="&#xfc;" horiz-adv-x="1257" d="M145 332q0 9 5 67l59 580h326l-58 -543q-2 -18 -2 -43q0 -54 29.5 -86.5t89.5 -32.5q48 0 97.5 22t74.5 44l25 22l63 617h326l-103 -979h-311v104q-5 -5 -15 -13t-41 -29t-63.5 -37.5t-79.5 -29.5t-92 -13q-142 0 -236 90.5t-94 259.5zM338 1128l29 269h268l-29 -269 h-268zM813 1128l29 269h268l-29 -269h-268z" />
<glyph unicode="&#xfd;" horiz-adv-x="1179" d="M106 979h353l162 -561l290 561h334l-764 -1389h-329l272 488zM428 1253l442 250l117 -260l-487 -188z" />
<glyph unicode="&#xfe;" horiz-adv-x="1251" d="M78 -410l198 1885h324l-61 -574q4 4 11.5 10.5t33 23.5t54 30t73.5 23.5t92 10.5q169 0 283 -129.5t114 -332.5q0 -116 -42 -220.5t-111 -177.5t-159.5 -116t-185.5 -43q-49 0 -92.5 11t-70.5 26.5t-47 31t-28 26.5l-9 11l-52 -496h-325zM485 375q2 -4 5.5 -10.5t17 -24 t31 -30.5t47.5 -23.5t65 -10.5q98 0 165 70.5t67 167.5q0 81 -51 136t-136 55q-35 0 -67 -10t-52.5 -24.5t-36.5 -29.5t-23 -25l-7 -10z" />
<glyph unicode="&#xff;" horiz-adv-x="1179" d="M106 979h353l162 -561l290 561h334l-764 -1389h-329l272 488zM326 1128l28 269h269l-29 -269h-268zM801 1128l28 269h269l-29 -269h-268z" />
<glyph unicode="&#x152;" horiz-adv-x="2181" d="M115 633q0 162 61 308t163.5 249.5t241.5 164t291 60.5q78 0 148 -19.5t100 -39.5l31 -19l6 60h997l-32 -318h-660l-22 -219h559l-33 -311h-559l-25 -232h672l-33 -317h-1009l8 59q-14 -9 -38.5 -21.5t-100 -34t-150.5 -21.5q-126 0 -239.5 48.5t-196.5 133t-131.5 206.5 t-48.5 263zM453 657q0 -151 94.5 -252.5t240.5 -101.5q48 0 92.5 9t74.5 22t53 26t34 22l11 9l63 615q-3 4 -9 9.5t-27.5 21t-46.5 27t-66.5 21t-87.5 9.5q-174 0 -300 -129.5t-126 -307.5z" />
<glyph unicode="&#x153;" horiz-adv-x="1902" d="M102 438q0 159 79 288.5t213 201t294 71.5q104 0 195 -39t155 -108q167 147 377 147q105 0 189.5 -37.5t136 -100t79 -137t27.5 -153.5q0 -44 -7.5 -89t-13.5 -67l-7 -22h-645q10 -62 69.5 -105.5t153.5 -43.5q84 0 169 16t128 32l43 15l-27 -258q-18 -8 -49.5 -19.5 t-128 -30.5t-191.5 -19q-251 0 -380 145q-168 -145 -381 -145q-139 0 -248.5 61t-169.5 165.5t-60 231.5zM426 465q0 -80 49.5 -135.5t130.5 -55.5q93 0 161.5 71.5t68.5 164.5q0 83 -50.5 139t-132.5 56q-95 0 -161 -71.5t-66 -168.5zM1192 580h403q0 63 -50 114t-128 51 q-77 0 -140 -47.5t-85 -117.5z" />
<glyph unicode="&#x178;" horiz-adv-x="1349" d="M129 1397h379l217 -570l334 570h379l-576 -850l-55 -547h-338l57 555zM428 1546l29 269h268l-29 -269h-268zM903 1546l29 269h268l-29 -269h-268z" />
<glyph unicode="&#x2c6;" horiz-adv-x="659" d="M63 1272l357 241l303 -241l-117 -172l-217 121l-246 -121z" />
<glyph unicode="&#x2dc;" horiz-adv-x="634" d="M55 1174q10 92 76.5 166.5t157.5 74.5q42 0 77 -13.5t59 -27.5t40 -14q22 0 44 17t33 33l11 17l158 -73q-10 -91 -77 -165.5t-157 -74.5q-42 0 -77 14t-59 27.5t-40 13.5q-22 0 -44.5 -16.5t-34.5 -33.5l-11 -17z" />
<glyph unicode="&#x2000;" horiz-adv-x="986" />
<glyph unicode="&#x2001;" horiz-adv-x="1972" />
<glyph unicode="&#x2002;" horiz-adv-x="986" />
<glyph unicode="&#x2003;" horiz-adv-x="1972" />
<glyph unicode="&#x2004;" horiz-adv-x="657" />
<glyph unicode="&#x2005;" horiz-adv-x="493" />
<glyph unicode="&#x2006;" horiz-adv-x="328" />
<glyph unicode="&#x2007;" horiz-adv-x="328" />
<glyph unicode="&#x2008;" horiz-adv-x="246" />
<glyph unicode="&#x2009;" horiz-adv-x="394" />
<glyph unicode="&#x200a;" horiz-adv-x="109" />
<glyph unicode="&#x2010;" horiz-adv-x="829" d="M135 393l31 295h584l-31 -295h-584z" />
<glyph unicode="&#x2011;" horiz-adv-x="829" d="M135 393l31 295h584l-31 -295h-584z" />
<glyph unicode="&#x2012;" horiz-adv-x="829" d="M135 393l31 295h584l-31 -295h-584z" />
<glyph unicode="&#x2013;" horiz-adv-x="970" d="M12 403l31 281h971l-31 -281h-971z" />
<glyph unicode="&#x2014;" horiz-adv-x="1941" d="M12 403l31 281h1942l-31 -281h-1942z" />
<glyph unicode="&#x2018;" horiz-adv-x="530" d="M123 891l33 326l209 282l129 -78l-117 -204l-2 -21h92l-31 -305h-313z" />
<glyph unicode="&#x2019;" horiz-adv-x="530" d="M160 944l114 205l5 20h-93l31 306h313l-34 -326l-207 -283z" />
<glyph unicode="&#x201a;" horiz-adv-x="581" d="M109 -225l114 205l4 20h-92l31 305h313l-35 -325l-206 -283z" />
<glyph unicode="&#x201c;" horiz-adv-x="987" d="M123 891l33 326l209 282l129 -78l-117 -204l-2 -21h92l-31 -305h-313zM580 891l32 326l209 282l129 -78l-116 -204l-3 -21h93l-31 -305h-313z" />
<glyph unicode="&#x201d;" horiz-adv-x="987" d="M160 944l114 205l5 20h-93l31 306h313l-34 -326l-207 -283zM616 944l115 205l4 20h-92l31 306h313l-35 -326l-207 -283z" />
<glyph unicode="&#x201e;" horiz-adv-x="1038" d="M109 -225l114 205l4 20h-92l31 305h313l-35 -325l-206 -283zM565 -225l115 205l4 20h-92l31 305h313l-35 -325l-207 -283z" />
<glyph unicode="&#x2022;" horiz-adv-x="1011" d="M158 618q0 159 111 270t272 111q157 0 270 -113t113 -268q0 -160 -111.5 -271t-271.5 -111q-161 0 -272 111t-111 271z" />
<glyph unicode="&#x2026;" horiz-adv-x="1904" d="M133 0l37 346h348l-37 -346h-348zM768 0l37 346h348l-37 -346h-348zM1403 0l37 346h348l-37 -346h-348z" />
<glyph unicode="&#x202f;" horiz-adv-x="394" />
<glyph unicode="&#x2039;" horiz-adv-x="776" d="M106 481l338 443h322l-334 -443l240 -442h-322z" />
<glyph unicode="&#x203a;" horiz-adv-x="776" d="M59 39l332 442l-237 443h321l244 -443l-338 -442h-322z" />
<glyph unicode="&#x205f;" horiz-adv-x="493" />
<glyph unicode="&#x20ac;" d="M-14 440l96 217h59q2 25 4 54l9 53h-136l99 213h90q88 203 262.5 321.5t419.5 118.5q78 0 147 -11.5t99 -23.5l30 -12l-35 -323q-13 7 -36.5 17.5t-96 28t-145.5 17.5q-99 0 -173 -36.5t-114 -96.5h346l-22 -213h-424q-8 -22 -12 -51l-2 -56h342l-23 -217h-276 q74 -155 268 -155q81 0 157.5 18.5t112.5 36.5l37 18l-33 -317q-12 -7 -35 -17t-104.5 -27t-175.5 -17q-229 0 -375.5 126.5t-191.5 333.5h-168z" />
<glyph unicode="&#x2122;" horiz-adv-x="1802" d="M170 1141l27 256h600l-27 -256h-170l-55 -520h-260l55 520h-170zM844 621l82 776h223l149 -205l189 205h223l-82 -776h-258l39 360l-149 -147l-121 151l-39 -364h-256z" />
<glyph unicode="&#x25fc;" horiz-adv-x="983" d="M0 0v983h983v-983h-983z" />
<glyph unicode="&#xfb03;" horiz-adv-x="2125" d="M94 684l31 295h135l12 121q7 72 37.5 137t84 119.5t139.5 86.5t194 32h92l-26 -263q-182 0 -197 -141l-10 -92h409l13 121q6 57 25.5 110t56.5 101.5t88 84.5t124 57.5t160 21.5h92l-26 -263q-182 0 -197 -141l-10 -92h713l-103 -979h-332l72 684h-381l-71 -684h-326 l72 684h-410l-72 -684h-325l71 684h-135zM1714 1116l29 279h338l-29 -279h-338z" />
<glyph unicode="&#xfb04;" horiz-adv-x="2131" d="M94 684l31 295h135l12 121q7 72 37.5 137t84 119.5t139.5 86.5t194 32h92l-26 -263q-182 0 -197 -141l-10 -92h409l13 121q6 57 25.5 110t56.5 101.5t88 84.5t124 57.5t160 21.5h621l-154 -1475h-325l127 1212h-203q-182 0 -197 -141l-10 -92h182l-30 -295h-183l-71 -684 h-326l72 684h-410l-72 -684h-325l71 684h-135z" />
</font>
</defs>
</svg>
